<svg xmlns="http://www.w3.org/2000/svg" xmlns:xlink="http://www.w3.org/1999/xlink" width="267" height="259" viewBox="0 0 267 259" fill="none"><defs><rect id="path_0" x="0" y="0" width="267.00000000000006" height="258.82618645832537" /></defs><g opacity="1" transform="translate(0 0)  rotate(0 133.50000000000003 129.41309322916268)"><mask id="bg-mask-0" fill="white"><use xlink:href="#path_0"></use></mask><g mask="url(#bg-mask-0)" ><path id="路径 1" fill-rule="evenodd" style="fill:#C2EDE4" transform="translate(8.844980714162546 0)  rotate(0 119.16857199029211 128.43772907490518)" opacity="1" d="M0.2,175.92C2.74,207.72 23.94,234.31 46.76,256.88L214.26,256.88C220.9,241.46 223.56,224.23 226.03,207.46C227.98,194 230,180.6 231.95,167.14C235.46,143.41 238.91,119.48 238.26,95.49C237.61,71.49 232.54,47.17 220.05,26.62C213.48,15.77 204.31,5.82 192.22,1.85C171.93,-4.85 149.76,7.57 136.17,24.09C122.64,40.6 114.78,61.09 102.88,78.77C88.64,99.97 68.35,117.14 45.14,127.67C28.49,135.22 8.27,141.59 1.96,158.69C-0.06,164.15 -0.25,170.13 0.2,175.92Z " /><g opacity="1" transform="translate(0 101.91049187842358)  rotate(0 30.566569587353847 77.7425802434954)"><g opacity="1" transform="translate(0 0)  rotate(0 30.566569587353847 77.7425802434954)"><g opacity="1" transform="translate(10.708399409958792 0)  rotate(0 20.14988307525064 46.14078164555096)"><g opacity="1" transform="translate(0 0)  rotate(0 20.14988307525064 46.14078164555096)"><g opacity="1" transform="translate(0 0)  rotate(0 20.14988307525064 46.14078164555096)"><path id="路径 13" fill-rule="evenodd" style="fill:#8BC4F0" transform="translate(0 0)  rotate(0 20.14988307525064 46.140781645550945)" opacity="1" d="M37.42,85.91C37.48,85.71 37.61,85.52 37.68,85.26C40.93,77.78 43.08,64.13 32.02,43.71C26.5,33.5 23.05,25.31 20.71,18.87C20.64,18.74 20.64,18.67 20.58,18.54C15.44,4.3 15.83,-0.96 11.54,0.14C5.3,1.7 -20.13,89.55 33.13,92.28C33.13,92.28 35.47,90.2 37.42,85.91Z " /></g></g><g opacity="1" transform="translate(0.9168809015597095 1.9384585029969017)  rotate(0 18.38155029044532 42.01787496195312)"><g opacity="1" transform="translate(9.492582052433967 7.105427357601002e-15)  rotate(0 13.635259264228335 42.01787496195312)"><path id="路径 14" fill-rule="evenodd" style="fill:#520025" transform="translate(-1.7763568394002505e-15 0)  rotate(0 13.635259264228335 42.01787496195312)" opacity="1" d="M3.54,38.32L3.54,38.26C2.89,34.81 2.37,31.56 1.98,28.51C1.91,28.05 1.85,27.53 1.78,27.07C0.16,14.85 0.22,5.75 2.04,0.41C2.11,0.22 1.98,0.09 1.85,0.02C1.65,-0.04 1.52,0.02 1.46,0.22C-0.43,5.94 -0.49,15.44 1.33,28.51C1.33,28.64 1.39,28.77 1.39,28.9C1.72,31.04 2.04,33.32 2.5,35.72C2.56,36.05 2.63,36.37 2.69,36.76C2.76,37.02 2.82,37.35 2.82,37.61C2.89,37.87 2.89,38.13 2.95,38.39C2.95,38.45 2.95,38.45 2.95,38.52C3.99,44.05 5.55,49.38 7.57,54.58C7.57,54.64 7.57,54.64 7.63,54.71C7.89,55.3 8.15,55.95 8.41,56.53C8.48,56.66 8.48,56.79 8.54,56.86C9,57.9 9.45,58.94 9.97,59.98C10.1,60.24 10.23,60.5 10.36,60.82C13.03,66.22 16.28,71.36 20.05,76.17C20.25,76.36 20.38,76.56 20.57,76.82C22.39,79.09 24.28,81.24 26.36,83.32L27.01,84.04C27.08,83.84 27.21,83.65 27.27,83.39L26.75,82.87C19.21,75.19 13.23,66.35 9.06,56.6C8.93,56.34 8.8,56.08 8.74,55.75C8.54,55.3 8.35,54.9 8.22,54.45C8.02,53.99 7.89,53.6 7.7,53.15C5.88,48.4 4.51,43.4 3.54,38.32Z " /></g><g opacity="1" transform="translate(10.753389800689419 16.573062587759416)  rotate(0 4.502931178822332 6.234531887220819)"><path id="路径 15" fill-rule="evenodd" style="fill:#520025" transform="translate(-1.7763568394002505e-15 0)  rotate(0 4.502931178822332 6.234531887220819)" opacity="1" d="M0.65,12.19C1.37,8.29 8.84,0.62 8.91,0.55C9.04,0.42 9.04,0.23 8.91,0.1C8.78,-0.03 8.58,-0.03 8.45,0.1C8.13,0.42 0.78,8.03 0,12.13C0,12.26 0.13,12.39 0.26,12.45C0.46,12.52 0.65,12.39 0.65,12.19Z " /></g><g opacity="1" transform="translate(0.4145297655594522 29.480381562434253)  rotate(0 6.161050241060157 3.7198507548768482)"><path id="路径 16" fill-rule="evenodd" style="fill:#520025" transform="translate(0 0)  rotate(0 6.161050241060158 3.7198507548768482)" opacity="1" d="M12.22,7.35C12.35,7.22 12.35,7.02 12.22,6.89C11.96,6.63 5.4,0.78 0.39,0C0.2,0 0.07,0.13 0,0.26C0,0.46 0.07,0.59 0.26,0.65C5.07,1.37 11.64,7.28 11.7,7.35C11.83,7.35 11.9,7.41 11.9,7.41C12.03,7.48 12.16,7.41 12.22,7.35Z " /></g><g opacity="1" transform="translate(0.08940838080693325 31.69120697875136)  rotate(0 6.505359312747787 3.49155348631049)"><path id="路径 17" fill-rule="evenodd" style="fill:#520025" transform="translate(0 0)  rotate(0 6.505359312747788 3.49155348631049)" opacity="1" d="M12.94,6.83C13.07,6.7 13,6.5 12.87,6.37C12.55,6.11 4.49,0.33 0.33,0C0.13,0 0,0.13 0,0.33C0,0.52 0.13,0.65 0.33,0.65C4.36,0.98 12.48,6.83 12.55,6.89C12.48,6.96 12.55,6.96 12.61,6.96C12.74,7.02 12.87,6.96 12.94,6.83Z " /></g><g opacity="1" transform="translate(17.10847337346068 38.931214524572574)  rotate(0 5.459530645873562 7.954317524278915)"><path id="路径 18" fill-rule="evenodd" style="fill:#520025" transform="translate(0 0)  rotate(0 5.459530645873562 7.954317524278915)" opacity="1" d="M0.28,15.91C0.47,15.91 0.6,15.78 0.6,15.58C0.73,9.15 10.68,0.69 10.81,0.56C10.94,0.43 10.94,0.24 10.88,0.11C10.75,-0.02 10.55,-0.02 10.42,0.04C10.03,0.37 0.08,8.82 0.02,15.52C-0.05,15.71 0.08,15.84 0.21,15.91L0.28,15.91Z " /></g><g opacity="1" transform="translate(0 56.88769953932323)  rotate(0 10.070634892709146 1.9468716700796869)"><path id="路径 19" fill-rule="evenodd" style="fill:#520025" transform="translate(0 0)  rotate(0 10.070634892709146 1.9468716700796869)" opacity="1" d="M0.54,1.4C6.66,-1.2 19.6,3.87 19.73,3.87C19.92,3.93 20.05,3.87 20.12,3.67C20.18,3.48 20.12,3.35 19.92,3.28C19.4,3.09 6.59,-1.92 0.22,0.81C0.02,0.88 -0.04,1.07 0.02,1.27C0.15,1.33 0.22,1.4 0.35,1.4C0.41,1.4 0.48,1.4 0.54,1.4Z " /></g><g opacity="1" transform="translate(17.84103598829425 40.7887425164268)  rotate(0 5.692555850866497 8.078134011488075)"><path id="路径 20" fill-rule="evenodd" style="fill:#520025" transform="translate(-3.552713678800501e-15 0)  rotate(0 5.692555850866497 8.078134011488075)" opacity="1" d="M0.65,15.94C0.72,15.81 6.24,3.91 11.25,0.59C11.38,0.46 11.44,0.27 11.31,0.14C11.18,0.01 10.99,-0.06 10.86,0.07C5.66,3.45 0.26,15.16 0,15.68C0,15.87 0.07,16.07 0.26,16.13C0.39,16.2 0.59,16.13 0.65,15.94Z " /></g><g opacity="1" transform="translate(13.256824463283785 76.16781241289539)  rotate(0 8.599460626704017 3.0886531551488896)"><path id="路径 21" fill-rule="evenodd" style="fill:#520025" transform="translate(-1.7763568394002505e-15 0)  rotate(0 8.599460626704017 3.0886531551488896)" opacity="1" d="M0.49,6.11C5.56,1.24 16.74,0.65 16.87,0.65C17.07,0.65 17.2,0.52 17.2,0.33C17.2,0.13 17.07,0 16.87,0C16.42,0 5.36,0.59 0.1,5.66C-0.03,5.79 -0.03,5.98 0.1,6.11C0.1,6.11 0.1,6.18 0.16,6.18C0.29,6.18 0.42,6.18 0.49,6.11Z " /></g></g></g><g opacity="1" transform="translate(24.872306839938908 44.89121600764924)  rotate(0 17.65161635156541 55.29697223967078)"><path id="路径 22" fill-rule="evenodd" style="fill:#FFD27A" transform="translate(0 1.4210854715202004e-14)  rotate(0 17.65161635156541 55.29697223967076)" opacity="1" d="M19.68,3.11C13.37,-0.66 8.76,-0.53 5.5,1.03C0.3,3.56 -1.45,10.07 1.28,15.07C13.76,38.09 33.4,104.61 35.16,110.53L35.29,110.53L35.29,110.59C35.35,103.64 35.94,12.67 19.68,3.11Z " /><g opacity="1" transform="translate(2.691009859931233 5.768946799735872)  rotate(0 14.931719344329444 37.066769479484144)"><g opacity="1" transform="translate(5.798592981577798 -1.4210854715202004e-14)  rotate(0 12.032422853540545 37.066769479484144)"><path id="路径 23" fill-rule="evenodd" style="fill:#520025" transform="translate(0 0)  rotate(0 12.03242285354054 37.06676947948415)" opacity="1" d="M24.06,73.81C22.57,31.28 0.79,0.46 0.59,0.14C0.46,0.01 0.27,-0.06 0.14,0.07C0.01,0.2 -0.06,0.4 0.07,0.53C0.33,0.85 21.92,31.54 23.41,73.81C23.41,74 23.54,74.13 23.74,74.13C23.93,74.13 24.06,74 24.06,73.81Z " /></g><g opacity="1" transform="translate(-3.552713678800501e-15 7.322598503142203)  rotate(0 6.0263250198080245 1.283477414364571)"><path id="路径 24" fill-rule="evenodd" style="fill:#520025" transform="translate(0 0)  rotate(0 6.0263250198080245 1.283477414364571)" opacity="1" d="M11.98,2.44C12.11,2.31 12.05,2.11 11.92,1.98C7.37,-1.53 0.47,0.68 0.21,0.75C0.08,0.81 -0.05,0.94 0.02,1.14C0.08,1.27 0.21,1.4 0.41,1.33C0.47,1.33 7.23,-0.81 11.46,2.5C11.53,2.57 11.59,2.57 11.66,2.57C11.79,2.57 11.85,2.5 11.98,2.44Z " /></g><g opacity="1" transform="translate(0.9682756187791206 9.876469467254012)  rotate(0 5.964845010596728 0.9819060865662226)"><path id="路径 25" fill-rule="evenodd" style="fill:#520025" transform="translate(0 0)  rotate(0 5.964845010596728 0.9819060865662226)" opacity="1" d="M11.86,1.9C11.99,1.77 11.92,1.57 11.79,1.44C7.57,-1.48 0.54,0.92 0.22,1.05C0.02,1.12 -0.04,1.25 0.02,1.44C0.09,1.64 0.22,1.7 0.41,1.64C0.48,1.57 7.5,-0.77 11.4,1.9C11.47,1.96 11.53,1.96 11.6,1.96C11.66,1.96 11.79,1.9 11.86,1.9Z " /></g><g opacity="1" transform="translate(18.159068837568334 17.13338287712314)  rotate(0 2.880512922424408 3.465731414978924)"><path id="路径 26" fill-rule="evenodd" style="fill:#520025" transform="translate(0 0)  rotate(0 2.880512922424408 3.465731414978924)" opacity="1" d="M0.65,6.67C1.37,3.1 5.53,0.62 5.59,0.62C5.79,0.49 5.79,0.3 5.72,0.17C5.59,-0.03 5.4,-0.03 5.27,0.04C5.07,0.17 0.78,2.64 0,6.54C0,6.74 0.07,6.87 0.33,6.93C0.52,6.93 0.65,6.87 0.65,6.67Z " /></g></g></g><g opacity="1" transform="translate(0 58.273866445988894)  rotate(0 30.566569587353847 48.605647020500946)"><path id="路径 27" fill-rule="evenodd" style="fill:#8BC4F0" transform="translate(0 0.36173445597157183)  rotate(0 30.566569587353847 48.42477979251515)" opacity="1" d="M24.39,3.21C-3.24,-10.18 -4.67,21.88 6.64,33.58C12.69,39.89 42.73,79.42 55.93,96.85L61.13,96.85C58.27,74.74 48.32,14.85 24.39,3.21Z " /><g opacity="1" transform="translate(5.4468487661599685 0)  rotate(0 26.876238419226485 48.4430863281247)"><g opacity="1" transform="translate(0 9.988229311460316)  rotate(0 26.876238419226485 43.448971672394535)"><path id="路径 28" fill-rule="evenodd" style="fill:#520025" transform="translate(0 0)  rotate(0 26.876238419226485 43.448971672394535)" opacity="1" d="M53.48,86.9C53.67,86.83 53.8,86.7 53.74,86.51C53.67,86.31 49.7,69.6 41.25,50.68C33.38,33.25 19.92,10.23 0.48,0.03C0.29,-0.04 0.09,0.03 0.03,0.16C-0.04,0.35 0.03,0.55 0.16,0.61C37.09,19.99 52.96,85.99 53.09,86.64C53.15,86.77 53.28,86.9 53.41,86.9L53.48,86.9Z " /></g><g opacity="1" transform="translate(6.8530584187199945 0)  rotate(0 8.21441463208093 3.251213847525147)"><path id="路径 29" fill-rule="evenodd" style="fill:#520025" transform="translate(-8.881784197001252e-16 0)  rotate(0 8.21441463208093 3.251213847525156)" opacity="1" d="M16.39,6.37C16.45,6.24 16.45,6.05 16.32,5.92C16.26,5.85 9.95,0.52 0.33,0C0.13,0 0,0.13 0,0.33C0,0.46 0.13,0.65 0.33,0.65C9.69,1.17 15.87,6.37 15.93,6.44C16,6.5 16.06,6.5 16.13,6.5C16.19,6.5 16.32,6.44 16.39,6.37Z " /></g><g opacity="1" transform="translate(0.25309430824393786 24.953788062847252)  rotate(0 9.477288365535806 3.6816387907763453)"><path id="路径 30" fill-rule="evenodd" style="fill:#520025" transform="translate(0 0)  rotate(0 9.477288365535806 3.6816387907763453)" opacity="1" d="M0.55,7.23C0.62,7.17 8.62,0.28 18.63,0.67C18.82,0.67 18.95,0.54 18.95,0.34C18.95,0.15 18.82,0.02 18.63,0.02C8.36,-0.37 0.16,6.71 0.1,6.78C-0.03,6.91 -0.03,7.1 0.1,7.23C0.16,7.3 0.29,7.36 0.36,7.36C0.42,7.36 0.49,7.36 0.55,7.23Z " /></g><g opacity="1" transform="translate(27.367414664310356 18.70260765788845)  rotate(0 2.4672600729563663 9.148102963473862)"><path id="路径 31" fill-rule="evenodd" style="fill:#520025" transform="translate(3.552713678800501e-15 0)  rotate(0 2.4672600729563663 9.148102963473862)" opacity="1" d="M0.68,17.91C-0.1,13.42 4.85,0.54 4.91,0.41C4.98,0.28 4.91,0.09 4.72,0.02C4.59,-0.04 4.39,0.02 4.32,0.22C4.13,0.74 -0.75,13.35 0.1,18.04C0.16,18.17 0.29,18.3 0.42,18.3C0.68,18.23 0.81,18.04 0.68,17.91Z " /></g><g opacity="1" transform="translate(28.885980595721897 21.432502054748795)  rotate(0 2.6513917405632554 8.856056334726992)"><path id="路径 32" fill-rule="evenodd" style="fill:#520025" transform="translate(-3.552713678800501e-15 0)  rotate(0 2.6513917405632554 8.856056334726992)" opacity="1" d="M0.66,17.39C0.47,10.1 5.21,0.55 5.28,0.48C5.34,0.29 5.28,0.09 5.15,0.03C4.95,-0.04 4.76,0.03 4.69,0.16C4.5,0.55 -0.25,9.91 0.01,17.39C0.01,17.58 0.14,17.71 0.34,17.71C0.47,17.71 0.66,17.58 0.66,17.39Z " /></g></g></g><g opacity="1" transform="translate(0.5637664817306715 93.37811730582933)  rotate(0 28.626567284250687 31.053521590580708)"><path id="路径 33" fill-rule="evenodd" style="fill:#FFD27A" transform="translate(0 1.4210854715202004e-14)  rotate(0 28.626567284250683 31.053521590580708)" opacity="1" d="M17.33,1.83C4.13,-5.13 -4.58,9.44 2.57,17.44C7.77,23.29 36.77,48.71 52.05,62.11L57.25,62.11C48.28,45.07 27.54,7.23 17.33,1.83Z " /><g opacity="1" transform="translate(3.2440952263793577 6.088628588303166)  rotate(0 25.29413100133127 27.619061634726123)"><g opacity="1" transform="translate(2.282227027996894 0)  rotate(0 24.15301748733282 27.619061634726123)"><path id="路径 34" fill-rule="evenodd" style="fill:#520025" transform="translate(8.881784197001252e-16 0)  rotate(0 24.15301748733282 27.619061634726123)" opacity="1" d="M48.15,55.24C48.28,55.11 48.35,54.91 48.28,54.78C40.54,39.96 0.94,0.49 0.55,0.1C0.42,-0.03 0.23,-0.03 0.1,0.1C-0.03,0.23 -0.03,0.42 0.1,0.55C0.49,0.94 40.02,40.35 47.76,55.04C47.76,55.17 47.89,55.24 48.02,55.24C48.09,55.24 48.09,55.24 48.15,55.24Z " /></g><g opacity="1" transform="translate(0 8.121418365777032)  rotate(0 5.8193600546556254 1.5151225656171292)"><path id="路径 35" fill-rule="evenodd" style="fill:#520025" transform="translate(0 0)  rotate(0 5.8193600546556254 1.5151225656171292)" opacity="1" d="M0.49,3.03C0.56,2.97 6.8,-0.81 11.16,1.34C11.35,1.4 11.55,1.34 11.61,1.21C11.68,1.01 11.61,0.82 11.48,0.75C6.8,-1.59 0.43,2.25 0.17,2.45C-0.03,2.58 -0.03,2.77 0.04,2.9C0.1,2.97 0.17,3.03 0.3,3.03C0.3,3.03 0.36,3.03 0.49,3.03Z " /></g><g opacity="1" transform="translate(0.8586957346439048 9.617908161324948)  rotate(0 5.910206402937697 1.612193268199669)"><path id="路径 36" fill-rule="evenodd" style="fill:#520025" transform="translate(0 0)  rotate(0 5.910206402937695 1.612193268199669)" opacity="1" d="M0.42,3.16C0.48,3.16 8.22,-0.61 11.34,1.14C11.53,1.21 11.73,1.14 11.79,1.01C11.86,0.82 11.79,0.62 11.66,0.56C8.22,-1.39 0.48,2.38 0.16,2.57C0.03,2.7 -0.04,2.9 0.03,3.03C0.03,3.16 0.16,3.22 0.29,3.22C0.35,3.22 0.42,3.22 0.42,3.16Z " /></g><g opacity="1" transform="translate(17.461988365888498 4.688750739994276)  rotate(0 1.9001623660485896 5.864939595003842)"><path id="路径 37" fill-rule="evenodd" style="fill:#520025" transform="translate(1.7763568394002505e-15 0)  rotate(0 1.9001623660485896 5.864939595003842)" opacity="1" d="M0.85,11.6C1.04,11.53 1.11,11.4 1.04,11.21C-0.52,7.37 3.71,0.55 3.77,0.48C3.84,0.35 3.77,0.09 3.64,0.03C3.51,-0.04 3.25,0.03 3.19,0.16C2.99,0.48 -1.3,7.37 0.39,11.53C0.46,11.66 0.59,11.73 0.72,11.73C0.72,11.73 0.78,11.73 0.85,11.6Z " /></g><g opacity="1" transform="translate(19.5868127314495 27.11156600727392)  rotate(0 4.727769469205118 1.0909353794638097)"><path id="路径 38" fill-rule="evenodd" style="fill:#520025" transform="translate(1.7763568394002505e-15 0)  rotate(0 4.727769469205118 1.0909353794638097)" opacity="1" d="M0.41,2.18C0.48,2.12 6.33,-0.22 8.93,1.01C9.13,1.14 9.32,1.01 9.39,0.88C9.52,0.69 9.45,0.49 9.26,0.43C6.4,-0.94 0.48,1.4 0.22,1.53C0.02,1.66 -0.04,1.79 0.02,1.99C0.09,2.12 0.22,2.18 0.35,2.18C0.41,2.18 0.41,2.18 0.41,2.18Z " /></g><g opacity="1" transform="translate(33.164284727579805 25.236422256353222)  rotate(0 1.4292696190850258 4.076771978865011)"><path id="路径 39" fill-rule="evenodd" style="fill:#520025" transform="translate(-3.552713678800501e-15 0)  rotate(0 1.4292696190850258 4.076771978865011)" opacity="1" d="M0.56,8.09C0.69,8.02 0.82,7.89 0.75,7.7C0.23,6.01 2.05,1.91 2.83,0.48C2.9,0.29 2.83,0.09 2.7,0.03C2.51,-0.04 2.31,0.03 2.25,0.16C2.12,0.42 -0.55,5.62 0.1,7.89C0.17,8.09 0.3,8.15 0.43,8.15C0.49,8.15 0.49,8.15 0.56,8.09Z " /></g><g opacity="1" transform="translate(34.655404899787015 27.05710201096727)  rotate(0 1.3664644409617037 3.9792355634392713)"><path id="路径 40" fill-rule="evenodd" style="fill:#520025" transform="translate(0 -2.842170943040401e-14)  rotate(0 1.3664644409617037 3.9792355634392713)" opacity="1" d="M0.56,7.96C0.76,7.89 0.89,7.76 0.82,7.57C0.17,4.64 2.71,0.55 2.71,0.48C2.77,0.35 2.71,0.09 2.58,0.03C2.45,-0.04 2.19,0.03 2.12,0.16C1.99,0.35 -0.54,4.51 0.11,7.7C0.17,7.83 0.3,7.96 0.43,7.96C0.43,7.96 0.43,7.96 0.56,7.96Z " /></g></g></g></g></g><g opacity="1" transform="translate(8.203377736998272 256.8754581498103)  rotate(0 129.3983111315009 0.9753641542575443)"><path id="路径 97" fill-rule="evenodd" style="fill:#520025" transform="translate(0 0)  rotate(0 129.3983111315009 0.9753641542575443)" opacity="1" d="M258.8,0.98C258.8,0.46 258.34,0 257.82,0L0.98,0C0.46,0 0,0.46 0,0.98C0,1.5 0.46,1.95 0.98,1.95L257.82,1.95C258.41,1.95 258.8,1.5 258.8,0.98Z " /></g></g></g></svg>